# xmcd
#
# Track frame offsets: 
#        150
#        11499
#        23276
#        35595
#        50068
#        63785
#        77159
#        87520
#        100086
#        113997
#        125507
#
# Disc length: 1843 seconds
#
# Revision: 0
# Processed by: cddbd v1.5.2PL0 Copyright (c) Steve Scherf et al.
# Submitted via: ExactAudioCopyFreeDBPlugin 1.0
#
DISCID=8307310b
DTITLE=George Jones - A Picture Of Me (Without You)
DYEAR=1972
DGENRE=Country
TTITLE0=A Picture Of Me (Without You)
TTITLE1=The Man Worth Lovin' You
TTITLE2=Seh Knows What She's Crying About
TTITLE3=Second Handed Flowers
TTITLE4=That Singing Friend Of Mine
TTITLE5=She Loves Me (Right Out Of My Mind)
TTITLE6=Tomorrow Never Comes
TTITLE7=Another Way To Say Goodbye
TTITLE8=On The Back Row
TTITLE9=Let There Be A Woman
TTITLE10=We Found A Match
EXTD=
EXTT0=
EXTT1=
EXTT2=
EXTT3=
EXTT4=
EXTT5=
EXTT6=
EXTT7=
EXTT8=
EXTT9=
EXTT10=
PLAYORDER=
